<?xml version="1.0" encoding="utf-8"?>
<!-- Generator: Adobe Illustrator 24.0.2, SVG Export Plug-In . SVG Version: 6.00 Build 0)  -->
<svg version="1.1" id="Слой_1" xmlns="http://www.w3.org/2000/svg" xmlns:xlink="http://www.w3.org/1999/xlink" x="0px" y="0px"
	 viewBox="0 0 509.2925415 601.3632202" style="enable-background:new 0 0 509.2925415 601.3632202;" xml:space="preserve">
<style type="text/css">
	.st0{opacity:0.995;fill-rule:evenodd;clip-rule:evenodd;fill:#FFFFFF;enable-background:new    ;}
</style>
<g>
	<path class="st0" d="M287.0376587,1.8983234c1.5115356-0.9169312,4.1793518-2.196228,7.385437-1.8359985
		c0.0000916,0,1.026947,0.1153564,2.0912476,0.4681397c5.1756897,1.715454,17.2572327,13.7712402,18.4363708,14.954834
		c3.7860107,5.3197021,2.9519958,9.8197021-2.5,13.5c-6.6108093,2.8331909-13.2216492,5.6664429-19.8324585,8.4996338
		c-2.4811401,1.4931641-5.7203369,3.8212891-8.8414612,7.3264771c-4.5627441,5.1241455-6.7553101,10.3853149-7.8260803,13.6738892
		c-9.605011,21.4727783-15.9379883,43.8060913-19,67c46.1119995-6.065979,91.6119995-2.8989868,136.5,9.5000076
		c14.5400696,4.0162659,37.4224548,12.9521179,61.1669617,32.9975586
		c19.6555176,16.5934448,31.4918823,34.4197998,38.1431885,46.2780151c2.6789246,4.776062,8.924408,17.791748,12.9892273,35.8729248
		c5.7440796,25.5511322,3.7813721,47.7654877-0.7689819,73.8889008
		c-4.6760254,26.8448486-11.3774414,63.9689636-31.3599854,112.6196899
		c-5.5911255,13.6124573-30.9603271,66.6773682-64.6704102,109.8428955
		c-3.3633728,4.3068237-13.7076111,15.5233765-29.1463318,27.5550537
		c-12.834137,10.0018921-24.9019165,19.1842651-42.9520264,23.852478
		c-8.165741,2.1118774-22.7865295,4.6350708-41.7277222,0.8751221c-5.8384094-1.302063-11.7134705-2.6413574-17.6243286-4.019043
		c-9.4750366-2.208374-18.8253479-4.4647217-28.0496063-6.7636108c-3.0095825-0.3919678-7.5722656-0.7543945-13.0422363-0.222229
		c-10.8490601,1.055481-16.8442688,4.8106079-26.9794922,8.2657471c-4.8765869,1.6624146-13.2192993,4.4112549-23.0670166,5.1455688
		c-19.8358917,1.4790649-35.5885925-6.1065063-43.0200195-9.6849976
		c-8.4893341-4.0879517-14.6107178-8.6995239-16.2190475-9.9295654c-3.1042938-2.3740845-5.9386597-4.8790894-8.6721802-7.5745239
		c-24.4060059-24.065979-44.572998-51.2319946-60.5000114-81.4999695c-28.9033947-55.0440063-47.5699997-113.3770142-56-175.0000305
		c-4.3816948-35.3370056-1.3816986-70.0039825,8.999999-103.9999847
		c5.7365723-17.291626,14.5209904-31.0699463,26.3533783-41.335022c5.2125168-4.5220947,15.8696518-12.7267456,44.1466331-20.164978
		c37.1262207-9.7659302,53.7930527-4.9078979,91.1956406-9.8695679
		c14.8786011-1.9736938,36.6576843-5.9814453,62.8043518-15.1304398c7.1419983-42.4320068,21.9760284-81.9320068,44.5000153-118.5
		c0.8125916-1.1256709,1.9137573-2.4518428,3.3695679-3.7825923C284.6433716,3.493294,285.9316711,2.5796587,287.0376587,1.8983234z
		"/>
</g>
</svg>
