<?xml version="1.0" encoding="utf-8"?>
<!-- Generator: Adobe Illustrator 24.0.2, SVG Export Plug-In . SVG Version: 6.00 Build 0)  -->
<svg version="1.1" id="Logo" xmlns="http://www.w3.org/2000/svg" xmlns:xlink="http://www.w3.org/1999/xlink" x="0px" y="0px"
	 viewBox="0 0 85.2382889 28.5774632" style="enable-background:new 0 0 85.2382889 28.5774632;" xml:space="preserve">
<style type="text/css">
	.st0{fill:#91FF1D;}
</style>
<g>
	<path class="st0" d="M0,7.2140331v16.363409c0,2.7614346,2.2385859,5.000021,5.0000219,5.000021H80.238266
		c2.7614365,0,5.0000229-2.2385864,5.0000229-5.000021V5.0000677c0-2.8190539-2.3292542-5.0807762-5.1470871-4.9978585
		L4.8529544,2.2161746C2.1499569,2.2957132,0,4.5098658,0,7.2140331z"/>
	<path d="M17.3015175,10.1166048v1.4082031c-1.2802734-0.2880859-2.4536133-0.3842773-3.5200195-0.2880859
		c-0.4589844,0.0424805-0.9174805,0.1279297-1.3759766,0.2558594c-0.4589844,0.1279297-0.8857422,0.3227539-1.2802734,0.5839844
		c-0.3945313,0.2617188-0.7436523,0.6000977-1.0478516,1.0161133s-0.5253906,0.9335938-0.6640625,1.5517578
		c-0.074707,0.3520508-0.1201172,0.7416992-0.1357422,1.1679688c-0.0161133,0.4267588,0.0371094,0.8535166,0.159668,1.2802744
		s0.3305664,0.8320313,0.6240234,1.2158203c0.293457,0.3842773,0.7119141,0.7148438,1.2563477,0.9921875
		c0.5439453,0.2773438,1.2260742,0.4775391,2.0478516,0.6000977c0.8212891,0.1225586,1.8183594,0.1303711,2.9916992,0.0239258
		l0.0961914,0.4477539c0.0214844,0.1176758,0.0400391,0.2241211,0.0561523,0.3203125
		c0.0161133,0.0957031,0.0185547,0.1494141,0.0078125,0.159668c-0.5654297,0.0639648-1.1948242,0.0883789-1.8876953,0.0722656
		c-0.6938477-0.0161133-1.387207-0.1040039-2.0800781-0.2641602c-0.6938477-0.1601563-1.3520508-0.4052734-1.9760742-0.7358398
		s-1.1386719-0.7841797-1.5439453-1.3603516c-0.4057617-0.5756836-0.6669922-1.2900391-0.7841797-2.1435547
		c-0.1171875-0.8535166-0.0268555-1.8774424,0.2719727-3.0722666c0.2026367-0.6186523,0.4853516-1.1357422,0.8481445-1.5517578
		c0.3623047-0.4160156,0.7680664-0.7573242,1.2158203-1.0244141c0.4482422-0.2661133,0.925293-0.4663086,1.4321289-0.5996094
		c0.5063477-0.1333008,1.0102539-0.2265625,1.512207-0.2802734C14.687748,9.7752962,15.946537,9.8500032,17.3015175,10.1166048z"/>
	<path d="M18.7106972,9.8124056l1.2958984,0.0161133l-0.5917969,11.184083l-1.0400391-0.0161133L18.7106972,9.8124056z"/>
	<path d="M21.0754433,9.8446321l9.5678711,0.1118164l-0.0957031,0.9443359l-4.4799805-0.0961914l0.8476563,10.0961924
		l-1.5839844,0.1118164l-0.2558594-10.2719736l-3.9521484-0.0800781L21.0754433,9.8446321z"/>
	<path d="M34.6361847,18.6922894l-0.640625-6.781251l-2.0156231-0.0703125l-0.046875-1.9765625l6.7656231-0.2734375v2.4609375
		l-2.3046875-0.0625l-0.25,6.687501l2.5078125-0.03125l0.046875,1.984375l-6.7031231,0.5390625l-0.109375-2.4609375
		L34.6361847,18.6922894z"/>
	<path d="M50.1841583,19.5414791c0.4885864-0.5361938,0.8508911-1.1606445,1.083374-1.8765259
		c0.234375-0.7211914,0.3515625-1.4931641,0.3515625-2.3164072c0-0.546875-0.0380859-1.0751953-0.1132813-1.5859375
		c-0.0756836-0.5102539-0.2060547-0.9868164-0.390625-1.4296875c-0.1850586-0.4423828-0.4296875-0.8447266-0.734375-1.2070313
		c-0.3046875-0.3618164-0.6835938-0.671875-1.1367188-0.9296875s-0.9912109-0.4580078-1.6132813-0.6015625
		C47.008255,9.4515734,46.2909698,9.379796,45.4784698,9.379796c-1.0419922,0-1.9482422,0.15625-2.71875,0.46875
		c-0.7709961,0.3125-1.4101563,0.7382813-1.9179688,1.2773438s-0.8867188,1.171875-1.1367188,1.8984375
		s-0.375,1.5014648-0.375,2.3242188c0,0.8232431,0.1142578,1.5952158,0.34375,2.3164072
		c0.2290039,0.7216797,0.5898438,1.3515625,1.0820313,1.890625s1.1274414,0.9648438,1.90625,1.2773438
		c0.7783203,0.3125,1.7172852,0.46875,2.8164063,0.46875c1.0830078,0,2.0126953-0.15625,2.7890625-0.46875
		c0.0497437-0.0200195,0.0870972-0.0500488,0.1356812-0.0709839l1.2453003,1.4569702l2.6738892-1.2062988L50.1841583,19.5414791z
		 M42.6139679,13.0410509c-0.1052246-0.1151733-0.182373-0.2498169-0.2313232-0.4041138
		c-0.0490112-0.1541138-0.0734253-0.3191528-0.0734253-0.4951172c0-0.1758423,0.0266724-0.3414917,0.0801392-0.4968262
		c0.0534058-0.1552734,0.1343994-0.2905273,0.242981-0.4057617c0.1085205-0.1152344,0.2451782-0.2062378,0.4099731-0.2730103
		c0.1646729-0.0668335,0.3583984-0.1002197,0.5811157-0.1002197c0.173645,0,0.3269653,0.0153198,0.460083,0.0458984
		c0.1329346,0.0307007,0.2479858,0.0734863,0.3447876,0.1286011c0.0968628,0.0551147,0.1778564,0.1213989,0.242981,0.1987305
		c0.0651245,0.0774536,0.1174316,0.1634521,0.1569824,0.2579956c0.0394897,0.0946655,0.0673218,0.1965332,0.0834961,0.305603
		c0.0161133,0.1091919,0.024231,0.2221069,0.024231,0.3389893c0,0.1759644-0.0250854,0.3410034-0.0751343,0.4951172
		c-0.0501099,0.1542969-0.1280518,0.2889404-0.2338257,0.4041138c-0.105835,0.1152344-0.2415771,0.2062378-0.4074707,0.2730713
		c-0.1658936,0.0667725-0.364624,0.1001587-0.5961304,0.1001587c-0.2349243,0-0.4356689-0.0333862-0.6019897-0.1001587
		C42.8549347,13.2472887,42.7191315,13.1562853,42.6139679,13.0410509z M48.9944611,18.017065
		c-0.062561,0.192627-0.1524048,0.3660889-0.2561646,0.5297241l-0.8338013-0.5736694l-1.5168457,0.430603l0.9581299,1.1210327
		c-0.2852173,0.0771484-0.595459,0.1288452-0.9564209,0.1288452c-0.4945679,0-0.9171143-0.0703125-1.267334-0.2109375
		c-0.3504639-0.140625-0.6363525-0.3322144-0.8578491-0.5748291c-0.2214966-0.2425537-0.3838501-0.526001-0.4868774-0.850769
		c-0.1032715-0.3245239-0.1547241-0.671936-0.1547241-1.0423584c0-0.3702393,0.0562744-0.7189941,0.1687622-1.0458994
		c0.1124878-0.3269653,0.28302-0.6117554,0.5115356-0.8543091c0.2285156-0.2426147,0.5161133-0.4342041,0.8630981-0.5748291
		c0.3466797-0.140625,0.7545166-0.2109375,1.2233887-0.2109375c0.3656616,0,0.6884155,0.0322876,0.9685669,0.0966797
		c0.2799683,0.0646362,0.5220947,0.1547241,0.7260132,0.2706909c0.2038574,0.1160278,0.3743896,0.2555542,0.5114746,0.418396
		c0.137146,0.1630249,0.2471924,0.3440552,0.3305054,0.5431519c0.0830688,0.1992798,0.1417236,0.4137583,0.1757813,0.6433725
		c0.0338135,0.2297974,0.0509644,0.4675903,0.0509644,0.7136841C49.1526642,17.345129,49.0999298,17.6925411,48.9944611,18.017065z
		 M49.0850372,12.5872545c-0.045105,0.138855-0.1152344,0.2600098-0.2103882,0.3637085
		c-0.0952759,0.1036987-0.2174683,0.1856079-0.3666992,0.2457275c-0.149353,0.0601196-0.3282471,0.09021-0.5365601,0.09021
		c-0.2114868,0-0.3920898-0.0300903-0.5418091-0.09021c-0.1498413-0.0601196-0.2720337-0.1420288-0.3666992-0.2457275
		c-0.0947266-0.1036987-0.1641235-0.2248535-0.2081909-0.3637085c-0.0441284-0.1387329-0.0661011-0.2872314-0.0661011-0.4456177
		c0-0.1582642,0.0240479-0.307312,0.0721436-0.4470825s0.1209717-0.2615356,0.2186279-0.3652344
		c0.0977173-0.1036987,0.2207031-0.1856079,0.3690186-0.2457275c0.1481934-0.0601196,0.3225708-0.0901489,0.5230103-0.0901489
		c0.156311,0,0.2942505,0.0137939,0.4140625,0.0413208c0.1196289,0.0275879,0.2231445,0.0661011,0.3103638,0.1157227
		c0.0871582,0.0495605,0.1600342,0.1092529,0.2186279,0.178833c0.0586548,0.0697021,0.1057129,0.1470947,0.1412964,0.2321777
		c0.0355225,0.0852051,0.0606079,0.1768799,0.0751343,0.2750854c0.0144653,0.0982056,0.0217896,0.1998901,0.0217896,0.3050537
		C49.1526642,12.3000231,49.1301422,12.4485216,49.0850372,12.5872545z"/>
	<path d="M53.00103,9.8285189l1.1201172-0.0161133c-0.074707,1.9204102-0.0429688,3.6430664,0.0957031,5.1679688
		c0.074707,0.6508789,0.1894531,1.2856455,0.3442383,1.9042978c0.1542969,0.6186523,0.3598633,1.1733398,0.6162109,1.6640625
		c0.2558594,0.4907227,0.5703125,0.8828125,0.9438477,1.1757813c0.3730469,0.293457,0.8266602,0.4458008,1.3598633,0.4560547
		c1.0024414,0.0107422,1.8105469-0.1333008,2.4243164-0.4321289c0.612793-0.2983398,1.0717773-0.8344727,1.3759766-1.6079102
		c0.3037109-0.7729492,0.4770508-1.8291016,0.5200195-3.1679697c0.0424805-1.3383789-0.0058594-3.0424805-0.144043-5.1118164
		l1.6157227-0.0322266c0.0322266,3.0400391,0.0131836,4.9760742-0.0561523,5.8081055
		c-0.0693359,0.8320322-0.2050781,1.5786142-0.4077148,2.239747c-0.2026367,0.6616211-0.5146484,1.2241211-0.9360352,1.6879883
		c-0.4213867,0.4643555-0.9814453,0.8217773-1.6801758,1.0722656s-1.581543,0.3706055-2.6479492,0.3598633
		c-0.8320313,0.0107422-1.5175781-0.1650391-2.0556641-0.527832c-0.5390625-0.362793-0.9760742-0.8427734-1.3120117-1.4399414
		c-0.3364258-0.597168-0.581543-1.2851563-0.7363281-2.0639648s-0.2612305-1.5839853-0.3198242-2.4160166
		S53.0225143,12.1434603,53.00103,9.8285189z"/>
	<path d="M66.8008347,20.9964886l-1.0400391,0.0161133l-0.5917969-11.184083l1.2958984-0.0161133L66.8008347,20.9964886z"/>
	<path d="M77.0264206,9.908597l0.0161133,0.5600586l-6.2563477,9.5839853l6.0961914-0.2880859l0.0800781,1.0878906
		l-7.7758789,0.1601563l-0.0800781-0.7202148l6.3999023-9.567872l-7.2001953,0.0639648l-0.0795898-0.9760742L77.0264206,9.908597z"
		/>
</g>
</svg>
