<?xml version="1.0" encoding="utf-8"?>
<!-- Generator: Adobe Illustrator 24.0.2, SVG Export Plug-In . SVG Version: 6.00 Build 0)  -->
<svg version="1.1" id="Logo" xmlns="http://www.w3.org/2000/svg" xmlns:xlink="http://www.w3.org/1999/xlink" x="0px" y="0px"
	 viewBox="0 0 85.2382889 28.5774632" style="enable-background:new 0 0 85.2382889 28.5774632;" xml:space="preserve">
<style type="text/css">
	.st0{fill:#91FF1D;}
</style>
<g>
	<path class="st0" d="M49.0557289,11.5614872c-0.0355835-0.085083-0.0826416-0.1624756-0.1412964-0.2321777
		c-0.0585938-0.0695801-0.1314697-0.1292725-0.2186279-0.178833c-0.0872192-0.0496216-0.1907349-0.0881348-0.3103638-0.1157227
		c-0.119812-0.0275269-0.2577515-0.0413208-0.4140625-0.0413208c-0.2004395,0-0.3748169,0.0300293-0.5230103,0.0901489
		c-0.1483154,0.0601196-0.2713013,0.1420288-0.3690186,0.2457275c-0.0976563,0.1036987-0.1705322,0.2254639-0.2186279,0.3652344
		s-0.0721436,0.2888184-0.0721436,0.4470825c0,0.1583862,0.0219727,0.3068848,0.0661011,0.4456177
		c0.0440674,0.138855,0.1134644,0.2600098,0.2081909,0.3637085c0.0946655,0.1036987,0.2168579,0.1856079,0.3666992,0.2457275
		c0.1497192,0.0601196,0.3303223,0.09021,0.5418091,0.09021c0.208313,0,0.387207-0.0300903,0.5365601-0.09021
		c0.149231-0.0601196,0.2714233-0.1420288,0.3666992-0.2457275c0.0951538-0.1036987,0.1652832-0.2248535,0.2103882-0.3637085
		c0.045105-0.1387329,0.067627-0.2872314,0.067627-0.4456177c0-0.1051636-0.0073242-0.2068481-0.0217896-0.3050537
		C49.1163368,11.7383671,49.0912514,11.6466923,49.0557289,11.5614872z"/>
	<path class="st0" d="M44.2195473,13.3141117c0.1658936-0.0668335,0.3016357-0.1578369,0.4074707-0.2730713
		c0.1057739-0.1151733,0.1837158-0.2498169,0.2338257-0.4041138c0.0500488-0.1541138,0.0751343-0.3191528,0.0751343-0.4951172
		c0-0.1168823-0.0081177-0.2297974-0.024231-0.3389893c-0.0161743-0.1090698-0.0440063-0.2109375-0.0834961-0.305603
		c-0.0395508-0.0945435-0.0918579-0.180542-0.1569824-0.2579956c-0.0651245-0.0773315-0.1461182-0.1436157-0.242981-0.1987305
		c-0.0968018-0.0551147-0.211853-0.0979004-0.3447876-0.1286011c-0.1331177-0.0305786-0.286438-0.0458984-0.460083-0.0458984
		c-0.2227173,0-0.4164429,0.0333862-0.5811157,0.1002197c-0.1647949,0.0667725-0.3014526,0.1577759-0.4099731,0.2730103
		c-0.1085815,0.1152344-0.1895752,0.2504883-0.242981,0.4057617c-0.0534668,0.1553345-0.0801392,0.3209839-0.0801392,0.4968262
		c0,0.1759644,0.0244141,0.3410034,0.0734253,0.4951172c0.0489502,0.1542969,0.1260986,0.2889404,0.2313232,0.4041138
		c0.1051636,0.1152344,0.2409668,0.2062378,0.4074707,0.2730713c0.1663208,0.0667725,0.3670654,0.1001587,0.6019897,0.1001587
		C43.8549232,13.4142704,44.0536537,13.3808842,44.2195473,13.3141117z"/>
	<path class="st0" d="M48.9259071,15.6176395c-0.083313-0.1990967-0.1933594-0.380127-0.3305054-0.5431519
		c-0.137085-0.1628418-0.3076172-0.3023682-0.5114746-0.418396c-0.2039185-0.1159668-0.4460449-0.2060547-0.7260132-0.2706909
		c-0.2801514-0.0643921-0.6029053-0.0966797-0.9685669-0.0966797c-0.4688721,0-0.876709,0.0703125-1.2233887,0.2109375
		c-0.3469849,0.140625-0.6345825,0.3322144-0.8630981,0.5748291c-0.2285156,0.2425537-0.3990479,0.5273438-0.5115356,0.8543091
		c-0.1124878,0.3269043-0.1687622,0.6756592-0.1687622,1.0458984c0,0.3704224,0.0514526,0.7178345,0.1547241,1.0423584
		c0.1030273,0.3247681,0.2653809,0.6082153,0.4868774,0.850769c0.2214966,0.2426147,0.5073853,0.4342041,0.8578491,0.5748291
		c0.3502197,0.140625,0.7727661,0.2109375,1.267334,0.2109375c0.3609619,0,0.6712036-0.0516968,0.9564209-0.1288452
		l-0.9581299-1.1210327l1.5168457-0.430603l0.8338013,0.5736694c0.1037598-0.1636353,0.1936035-0.3370972,0.2561646-0.5297241
		c0.1054688-0.3245239,0.1582031-0.671936,0.1582031-1.0423584c0-0.2460938-0.0171509-0.4838867-0.0509644-0.7136841
		C49.0676308,16.0313969,49.008976,15.8169193,48.9259071,15.6176395z"/>
	<path class="st0" d="M80.0911942,0.0022218L4.8529701,2.21615C2.1499672,2.2957399,0.0000039,4.509851,0.0000039,7.2140136
		v16.3634033c0,2.7614746,2.2385864,5.000061,5.000061,5.000061h75.2382202c2.7614136,0,5-2.2385864,5-5.000061V5.0000854
		C85.2382889,2.1809938,82.9090652-0.080725,80.0911942,0.0022218z M17.3015175,11.5248051
		c-1.2802734-0.2880859-2.4536133-0.3842773-3.5200195-0.2880859c-0.4589844,0.0424805-0.9174805,0.1279297-1.3759766,0.2558594
		c-0.4589844,0.1279297-0.8857422,0.3227539-1.2802734,0.5839844c-0.3945313,0.2617188-0.7436523,0.6000977-1.0478516,1.0161133
		s-0.5253906,0.9335938-0.6640625,1.5517578c-0.074707,0.3520508-0.1201172,0.7416992-0.1357422,1.1679688
		c-0.0161133,0.4267578,0.0371094,0.8535156,0.159668,1.2802734s0.3305664,0.8320313,0.6240234,1.2158203
		c0.293457,0.3842773,0.7119141,0.7148438,1.2563477,0.9921875c0.5439453,0.2773438,1.2260742,0.4775391,2.0478516,0.6000977
		c0.8212891,0.1225586,1.8183594,0.1303711,2.9916992,0.0239258l0.0961914,0.4477539
		c0.0214844,0.1176758,0.0400391,0.2241211,0.0561523,0.3203125c0.0161133,0.0957031,0.0185547,0.1494141,0.0078125,0.159668
		c-0.5654297,0.0639648-1.1948242,0.0883789-1.8876953,0.0722656c-0.6938477-0.0161133-1.387207-0.1040039-2.0800781-0.2641602
		c-0.6938477-0.1601563-1.3520508-0.4052734-1.9760742-0.7358398s-1.1386719-0.7841797-1.5439453-1.3603516
		c-0.4057617-0.5756836-0.6669922-1.2900391-0.7841797-2.1435547s-0.0268555-1.8774414,0.2719727-3.0722656
		c0.2026367-0.6186523,0.4853516-1.1357422,0.8481445-1.5517578c0.3623047-0.4160156,0.7680664-0.7573242,1.2158203-1.0244141
		c0.4482422-0.2661133,0.925293-0.4663086,1.4321289-0.5996094c0.5063477-0.1333008,1.0102539-0.2265625,1.512207-0.2802734
		c1.1621094-0.1171875,2.4208984-0.0424805,3.7758789,0.2241211V11.5248051z M19.4147987,21.012598l-1.0400391-0.0161133
		l0.3359375-11.184082l1.2958984,0.0161133L19.4147987,21.012598z M30.5476112,10.9007816l-4.4799805-0.0961914
		l0.8476563,10.0961914l-1.5839844,0.1118164l-0.2558594-10.2719727l-3.9521484-0.0800781l-0.0478516-0.815918l9.5678711,0.1118164
		L30.5476112,10.9007816z M38.6986732,12.0516605l-2.3046875-0.0625l-0.25,6.6875l2.5078125-0.03125l0.046875,1.984375
		l-6.703125,0.5390625l-0.109375-2.4609375l2.75-0.015625l-0.640625-6.78125l-2.015625-0.0703125l-0.046875-1.9765625
		l6.765625-0.2734375V12.0516605z M49.6485023,22.2188969l-1.2453003-1.4569702
		c-0.048584,0.0209351-0.0859375,0.0509644-0.1356812,0.0709839c-0.7763672,0.3125-1.7060547,0.46875-2.7890625,0.46875
		c-1.0991211,0-2.0380859-0.15625-2.8164063-0.46875c-0.7788086-0.3125-1.4140625-0.7382813-1.90625-1.2773438
		s-0.8530273-1.1689453-1.0820313-1.890625c-0.2294922-0.7211914-0.34375-1.4931641-0.34375-2.3164063
		c0-0.8227539,0.125-1.5976563,0.375-2.3242188s0.6289063-1.359375,1.1367188-1.8984375s1.1469727-0.9648438,1.9179688-1.2773438
		c0.7705078-0.3125,1.6767578-0.46875,2.71875-0.46875c0.8125,0,1.5297852,0.0717773,2.1523438,0.2148438
		c0.6220703,0.1435547,1.1601563,0.34375,1.6132813,0.6015625s0.8320313,0.5678711,1.1367188,0.9296875
		c0.3046875,0.3623047,0.5493164,0.7646484,0.734375,1.2070313c0.1845703,0.4428711,0.3149414,0.9194336,0.390625,1.4296875
		c0.0751953,0.5107422,0.1132813,1.0390625,0.1132813,1.5859375c0,0.8232422-0.1171875,1.5952148-0.3515625,2.3164063
		c-0.2324829,0.7158813-0.5947876,1.340332-1.083374,1.8765259l2.1382446,1.4711304L49.6485023,22.2188969z M63.2168617,15.6366215
		c-0.0693359,0.8320313-0.2050781,1.5786133-0.4077148,2.2397461c-0.2026367,0.6616211-0.5146484,1.2241211-0.9360352,1.6879883
		c-0.4213867,0.4643555-0.9814453,0.8217773-1.6801758,1.0722656s-1.581543,0.3706055-2.6479492,0.3598633
		c-0.8320313,0.0107422-1.5175781-0.1650391-2.0556641-0.527832c-0.5390625-0.362793-0.9760742-0.8427734-1.3120117-1.4399414
		c-0.3364258-0.597168-0.581543-1.2851563-0.7363281-2.0639648s-0.2612305-1.5839844-0.3198242-2.4160156
		s-0.0986328-2.4052734-0.1201172-4.7202148l1.1201172-0.0161133c-0.074707,1.9204102-0.0429688,3.6430664,0.0957031,5.1679688
		c0.074707,0.6508789,0.1894531,1.2856445,0.3442383,1.9042969c0.1542969,0.6186523,0.3598633,1.1733398,0.6162109,1.6640625
		c0.2558594,0.4907227,0.5703125,0.8828125,0.9438477,1.1757813c0.3730469,0.293457,0.8266602,0.4458008,1.3598633,0.4560547
		c1.0024414,0.0107422,1.8105469-0.1333008,2.4243164-0.4321289c0.612793-0.2983398,1.0717773-0.8344727,1.3759766-1.6079102
		c0.3037109-0.7729492,0.4770508-1.8291016,0.5200195-3.1679688c0.0424805-1.3383789-0.0058594-3.0424805-0.144043-5.1118164
		l1.6157227-0.0322266C63.3052406,12.8685551,63.2861977,14.8045902,63.2168617,15.6366215z M65.7608109,21.012598
		L65.169014,9.828516l1.2958984-0.0161133l0.3359375,11.184082L65.7608109,21.012598z M76.8823929,19.7645512l0.0800781,1.0878906
		l-7.7758789,0.1601563l-0.0800781-0.7202148l6.3999023-9.5678711l-7.2001953,0.0639648l-0.0795898-0.9760742l8.7998047,0.0961914
		l0.0161133,0.5600586l-6.2563477,9.5839844L76.8823929,19.7645512z"/>
</g>
</svg>
