<?xml version="1.0" encoding="utf-8"?>
<!-- Generator: Adobe Illustrator 24.0.2, SVG Export Plug-In . SVG Version: 6.00 Build 0)  -->
<svg version="1.1" id="Слой_1" xmlns="http://www.w3.org/2000/svg" xmlns:xlink="http://www.w3.org/1999/xlink" x="0px" y="0px"
	 viewBox="0 0 800 800" style="enable-background:new 0 0 800 800;" xml:space="preserve">
<style type="text/css">
	.st0{opacity:0.5;fill:#FFFFFF;}
</style>
<path class="st0" d="M400,700c-66.7773438,0-129.5581055-26.0048828-176.7763672-73.2236328
	C176.0043945,579.5576172,150,516.7773438,150,450c0-58.3730469,19.8710938-113.6923828,56.4130859-158.2324219L187.5,272.8544922
	l-7.3227539,7.3227539c-9.7626953,9.7636719-25.5917969,9.7636719-35.3544922,0
	c-9.7636719-9.7626953-9.7636719-25.5917969,0-35.3544922l50-50c9.7626953-9.7636719,25.5917969-9.7636719,35.3544922,0
	c9.7636719,9.7626953,9.7636719,25.5917969,0,35.3544922L222.8544922,237.5l18.9130859,18.9130859
	C286.3076172,219.8710938,341.6269531,200,400,200s113.6923828,19.8710938,158.2324219,56.4135742L577.1455078,237.5
	l-7.3232422-7.3227539c-9.7626953-9.7626953-9.7626953-25.5917969,0-35.3544922
	c9.7636719-9.7636719,25.5917969-9.7636719,35.3554688,0l50,50c9.7626953,9.7626953,9.7626953,25.5917969,0,35.3544922
	c-9.7636719,9.7636719-25.5917969,9.7636719-35.3554688,0L612.5,272.8544922l-18.9130859,18.9130859
	C630.1289063,336.3076172,650,391.6269531,650,450c0,66.7773438-26.0048828,129.5576172-73.2236328,176.7763672
	S466.7773438,700,400,700z M400,250c-110.2797852,0-200,89.7202148-200,200c0,110.2802734,89.7202148,200,200,200
	c110.2802734,0,200-89.7197266,200-200C600,339.7202148,510.2802734,250,400,250z M400,450c-13.8071289,0-25-11.1923828-25-25V325
	c0-13.8071289,11.1928711-25,25-25c13.8076172,0,25,11.1928711,25,25v100C425,438.8076172,413.8076172,450,400,450z M450,150H350
	c-13.8071289,0-25-11.1928711-25-25s11.1928711-25,25-25h100c13.8076172,0,25,11.1928711,25,25S463.8076172,150,450,150z"/>
</svg>
