<?xml version="1.0" encoding="utf-8"?>
<!-- Generator: Adobe Illustrator 24.0.2, SVG Export Plug-In . SVG Version: 6.00 Build 0)  -->
<svg version="1.1" id="Слой_1" xmlns="http://www.w3.org/2000/svg" xmlns:xlink="http://www.w3.org/1999/xlink" x="0px" y="0px"
	 viewBox="0 0 800 800" style="enable-background:new 0 0 800 800;" xml:space="preserve">
<style type="text/css">
	.st0{fill:#91FF1D;}
</style>
<path class="st0" d="M350,150h100c13.8076172,0,25-11.1928711,25-25s-11.1923828-25-25-25H350c-13.8071289,0-25,11.1928711-25,25
	S336.1928711,150,350,150z"/>
<path class="st0" d="M619.8222656,280.1772461c9.7636719,9.7636719,25.5917969,9.7636719,35.3554688,0
	c9.7626953-9.7626953,9.7626953-25.5917969,0-35.3544922l-50-50c-9.7636719-9.7636719-25.5917969-9.7636719-35.3554688,0
	c-9.7626953,9.7626953-9.7626953,25.5917969,0,35.3544922L577.1455078,237.5l-18.9130859,18.9135742
	C513.6923828,219.8710938,458.3730469,200,400,200s-113.6923828,19.8710938-158.2324219,56.4130859L222.8544922,237.5
	l7.3227539-7.3227539c9.7636719-9.7626953,9.7636719-25.5917969,0-35.3544922
	c-9.7626953-9.7636719-25.5917969-9.7636719-35.3544922,0l-50,50c-9.7636719,9.7626953-9.7636719,25.5917969,0,35.3544922
	c9.7626953,9.7636719,25.5917969,9.7636719,35.3544922,0L187.5,272.8544922l18.9130859,18.9130859
	C169.8710938,336.3076172,150,391.6269531,150,450c0,66.7773438,26.0043945,129.5576172,73.2236328,176.7763672
	C270.4418945,673.9951172,333.2226563,700,400,700s129.5576172-26.0048828,176.7763672-73.2236328S650,516.7773438,650,450
	c0-58.3730469-19.8710938-113.6923828-56.4130859-158.2324219L612.5,272.8544922L619.8222656,280.1772461z M425,325v100
	c0,13.8076172-11.1923828,25-25,25c-13.8071289,0-25-11.1923828-25-25V325c0-13.8071289,11.1928711-25,25-25
	C413.8076172,300,425,311.1928711,425,325z"/>
</svg>
