<?xml version="1.0" encoding="utf-8"?>
<!-- Generator: Adobe Illustrator 24.0.2, SVG Export Plug-In . SVG Version: 6.00 Build 0)  -->
<svg version="1.1" id="Слой_1" xmlns="http://www.w3.org/2000/svg" xmlns:xlink="http://www.w3.org/1999/xlink" x="0px" y="0px"
	 viewBox="0 0 800 800" style="enable-background:new 0 0 800 800;" xml:space="preserve">
<style type="text/css">
	.st0{opacity:0.5;fill:#FFFFFF;}
</style>
<path class="st0" d="M625,700H525c-41.3554688,0-75-33.6445313-75-75v-75.15625c0-27.6220703-22.4296875-50.09375-50-50.09375
	c-27.5698242,0-50,22.4716797-50,50.09375V625c0,41.3554688-33.6445313,75-75,75H175c-41.3554688,0-75-33.6728516-75-75.0634766
	V349.1435547c0-23.0737305,10.8901367-45.2739258,29.1298828-59.3867188L354.128418,115.6762695
	c27.0083008-20.8974609,64.7338867-20.8959961,91.7436523,0.0004883l225,174.0800781
	C689.1113281,303.8686523,700,326.0698242,700,349.1435547v275.7929688C700,666.3271484,666.3554688,700,625,700z M400,449.75
	c55.1396484,0,100,44.9013672,100,100.09375V625c0,13.7851563,11.2148438,25,25,25h100c13.7851563,0,25-11.2431641,25-25.0634766
	V349.1435547c0-7.7119141-3.6357422-15.1293945-9.7246094-19.840332l-225-174.0805664
	c-8.9931641-6.9594727-21.5566406-6.9604492-30.5498047-0.0009766l-225,174.081543
	C153.6352539,334.0151367,150,341.4316406,150,349.1435547v275.7929688C150,638.7568359,161.2143555,650,175,650h100
	c13.7856445,0,25-11.2148438,25-25v-75.15625C300,494.6513672,344.8598633,449.75,400,449.75z M144.4282227,309.5307617h0.0097656
	H144.4282227z"/>
</svg>
