<?xml version="1.0" encoding="utf-8"?>
<!-- Generator: Adobe Illustrator 24.0.2, SVG Export Plug-In . SVG Version: 6.00 Build 0)  -->
<svg version="1.1" id="Слой_1" xmlns="http://www.w3.org/2000/svg" xmlns:xlink="http://www.w3.org/1999/xlink" x="0px" y="0px"
	 viewBox="0 0 800 800" style="enable-background:new 0 0 800 800;" xml:space="preserve">
<style type="text/css">
	.st0{fill:#91FF1D;}
</style>
<path class="st0" d="M670.8720703,289.7568359l-225-174.0800781c-27.0097656-20.8964844-64.7353516-20.8979492-91.7436523-0.0004883
	L129.1298828,289.7568359C110.8901367,303.8696289,100,326.0698242,100,349.1435547v275.7929688
	C100,666.3271484,133.6445313,700,175,700h100c41.3554688,0,75-33.6445313,75-75v-75.15625
	c0-27.6220703,22.4301758-50.09375,50-50.09375c27.5703125,0,50,22.4716797,50,50.09375V625c0,41.3554688,33.6445313,75,75,75h100
	c41.3554688,0,75-33.6728516,75-75.0634766V349.1435547C700,326.0698242,689.1113281,303.8686523,670.8720703,289.7568359z"/>
</svg>
