<?xml version="1.0" encoding="utf-8"?>
<!-- Generator: Adobe Illustrator 24.0.2, SVG Export Plug-In . SVG Version: 6.00 Build 0)  -->
<svg version="1.1" id="Слой_1" xmlns="http://www.w3.org/2000/svg" xmlns:xlink="http://www.w3.org/1999/xlink" x="0px" y="0px"
	 viewBox="0 0 800 800" style="enable-background:new 0 0 800 800;" xml:space="preserve">
<style type="text/css">
	.st0{opacity:0.5;fill:#FFFFFF;}
</style>
<path class="st0" d="M400,700c-6.3979492,0-12.7958984-2.4404297-17.6772461-7.3222656L289.6455078,600H175
	c-41.3554688,0-75-33.6445313-75-75V225c0-41.3554688,33.6445313-75,75-75h450c41.3554688,0,75,33.6445313,75,75v300
	c0,41.3554688-33.6445313,75-75,75H510.3544922l-92.6767578,92.6777344C412.7958984,697.5595703,406.3984375,700,400,700z M175,200
	c-13.7856445,0-25,11.2143555-25,25v300c0,13.7851563,11.2143555,25,25,25h125
	c6.6298828,0,12.9892578,2.6337891,17.6772461,7.3222656L400,639.6455078l82.3222656-82.3232422
	C487.0107422,552.6337891,493.3701172,550,500,550h125c13.7851563,0,25-11.2148438,25-25V225c0-13.7856445-11.2148438-25-25-25H175z
	 M475,450H275c-13.8071289,0-25-11.1923828-25-25s11.1928711-25,25-25h200c13.8076172,0,25,11.1923828,25,25
	S488.8076172,450,475,450z M375,350H275c-13.8071289,0-25-11.1928711-25-25s11.1928711-25,25-25h100
	c13.8071289,0,25,11.1928711,25,25S388.8071289,350,375,350z"/>
</svg>
