<?xml version="1.0" encoding="utf-8"?>
<!-- Generator: Adobe Illustrator 24.0.2, SVG Export Plug-In . SVG Version: 6.00 Build 0)  -->
<svg version="1.1" id="Слой_1" xmlns="http://www.w3.org/2000/svg" xmlns:xlink="http://www.w3.org/1999/xlink" x="0px" y="0px"
	 viewBox="0 0 800 800" style="enable-background:new 0 0 800 800;" xml:space="preserve">
<style type="text/css">
	.st0{fill:#91FF1D;}
</style>
<path class="st0" d="M625,150H175c-41.3554688,0-75,33.6445313-75,75v300c0,41.3554688,33.6445313,75,75,75h114.6455078
	l92.6772461,92.6777344C387.2041016,697.5595703,393.6020508,700,400,700c6.3984375,0,12.7958984-2.4404297,17.6777344-7.3222656
	L510.3544922,600H625c41.3554688,0,75-33.6445313,75-75V225C700,183.6445313,666.3554688,150,625,150z M275,400h200
	c13.8076172,0,25,11.1923828,25,25s-11.1923828,25-25,25H275c-13.8071289,0-25-11.1923828-25-25S261.1928711,400,275,400z M250,325
	c0-13.8071289,11.1928711-25,25-25h100c13.8071289,0,25,11.1928711,25,25s-11.1928711,25-25,25H275
	C261.1928711,350,250,338.8071289,250,325z"/>
</svg>
