<?xml version="1.0" encoding="utf-8"?>
<!-- Generator: Adobe Illustrator 24.0.2, SVG Export Plug-In . SVG Version: 6.00 Build 0)  -->
<svg version="1.1" id="Слой_1" xmlns="http://www.w3.org/2000/svg" xmlns:xlink="http://www.w3.org/1999/xlink" x="0px" y="0px"
	 viewBox="0 0 800 800" style="enable-background:new 0 0 800 800;" xml:space="preserve">
<style type="text/css">
	.st0{fill:#91FF1D;}
</style>
<circle class="st0" cx="400" cy="300" r="25"/>
<path class="st0" d="M625,650H175c-13.8071289,0-25,11.1923828-25,25s11.1928711,25,25,25h450c13.8076172,0,25-11.1923828,25-25
	S638.8076172,650,625,650z"/>
<path class="st0" d="M386.1328125,595.8007813C390.331543,598.6005859,395.1655273,600,400,600
	c4.8339844,0,9.6689453-1.3994141,13.8671875-4.1992188c42.1679688-28.1113281,87.9482422-75.3339844,122.4609375-126.3183594
	C565.375,426.5722656,600,361.2529297,600,293.75C600,185.1054688,512.1494141,100,400,100
	c-112.1489258,0-200,85.1054688-200,193.75c0,67.5029297,34.6254883,132.8222656,63.671875,175.7324219
	C298.1845703,520.4667969,343.9643555,567.6894531,386.1328125,595.8007813z M400,375c-41.3554688,0-75-33.6445313-75-75
	s33.6445313-75,75-75s75,33.6445313,75,75S441.3554688,375,400,375z"/>
</svg>
