<?xml version="1.0" encoding="utf-8"?>
<!-- Generator: Adobe Illustrator 24.0.2, SVG Export Plug-In . SVG Version: 6.00 Build 0)  -->
<svg version="1.1" id="Logo" xmlns="http://www.w3.org/2000/svg" xmlns:xlink="http://www.w3.org/1999/xlink" x="0px" y="0px"
	 viewBox="0 0 349.2913818 99.6135559" style="enable-background:new 0 0 349.2913818 99.6135559;" xml:space="preserve">
<polygon points="33.9772339,46.8762512 37.1749878,61.3396301 43.0861206,46.3957825 48.6002808,60.337677 56.3209839,40.8181458 
	56.3209839,70.4519348 65.6461792,46.8762512 82.7373047,46.8762512 86,43.6135559 63.4801636,43.6135559 59.5841675,53.462677 
	59.5841675,23.8288879 48.6002808,51.5974426 43.0861206,37.6565247 38.0685425,50.3415833 36.5807495,43.6135559 14,43.6135559 
	17.2626953,46.8762512 "/>
<path d="M87-0.3864436H13c-7.1500244,0-13,5.8500366-13,13v74c0,7.1500244,5.8499756,13,13,13h74c7.1500244,0,13-5.8499756,13-13
	v-74C100,5.463593,94.1500244-0.3864436,87-0.3864436z M50,79.6135559L17.2626953,46.8762512h16.7145386l3.1977539,14.4633789
	l5.9111328-14.9438477l5.5141602,13.9418945l7.7207031-19.5195313v29.6337891l9.3251953-23.5756836h17.0911255L50,79.6135559z
	 M86,43.6135559H63.4801636l-3.8959961,9.8491211V23.8288879L48.6002808,51.5974426l-5.5141602-13.940918l-5.0175781,12.6850586
	l-1.487793-6.7280273H14v-12l13.7573853-12h13.7573853L50,28.0988464l8.4852905-8.4852905h13.7573853l13.7573242,12V43.6135559z"/>
<path d="M119.9999847,22.5287304V0h9.7518005c2.01651,0,3.7544403,0.3271556,5.2137756,0.9814667
	c1.4586334,0.6550254,2.5850983,1.592919,3.379425,2.8158236c0.7928772,1.2236192,1.1907501,2.6829612,1.1907501,4.3773127
	c0,1.6736364-0.3978729,3.1215496-1.1907501,4.3451691c-0.7943268,1.2229042-1.9207916,2.1615124-3.379425,2.8158236
	c-1.4593353,0.6550255-3.1972656,0.9814672-5.2137756,0.9814672h-6.8552628l2.3172379-2.3493776v8.5610456H119.9999847z
	 M125.2137604,14.5469933l-2.3172379-2.4779539h6.5652542c1.6093445,0,2.8108215-0.3428698,3.6044312-1.0300398
	c0.7935944-0.6864548,1.1907654-1.6414919,1.1907654-2.864397c0-1.2443337-0.397171-2.2093711-1.1907654-2.8965406
	c-0.7936096-0.6864552-1.9950867-1.0300398-3.6044312-1.0300398h-6.5652542l2.3172379-2.4779534V14.5469933z"/>
<path d="M154.2855988,22.9151745c-1.7814941,0-3.4279938-0.2900105-4.9401855-0.8693199
	c-1.5129242-0.5793076-2.8222504-1.3943386-3.92659-2.4458084c-1.1057587-1.0507545-1.9636383-2.2850895-2.5750885-3.7015724
	c-0.6114655-1.4157686-0.9171906-2.9608288-0.9171906-4.6344652s0.3057251-3.2179823,0.9171906-4.6344657
	c0.6114502-1.4157691,1.4750519-2.6493883,2.5908051-3.7008579c1.1157532-1.0507549,2.4243774-1.8665009,3.92659-2.4458091
	c1.5014801-0.5793082,3.1322632-0.8693194,4.892334-0.8693194c1.7800598,0,3.4165497,0.2900112,4.9080353,0.8693194
	c1.4907837,0.5793082,2.788681,1.3950541,3.8937225,2.4458091c1.1050415,1.0514696,1.9686584,2.2800887,2.5908203,3.6851432
	s0.933609,2.9558291,0.933609,4.6501803c0,1.6736364-0.3114471,3.224411-0.933609,4.6508951
	c-0.6221619,1.4271984-1.4857788,2.6608162-2.5908203,3.7008572c-1.1050415,1.0414696-2.4029388,1.8507862-3.8937225,2.4300938
	C157.6700134,22.625164,156.0442352,22.9151745,154.2855988,22.9151745z M154.2534637,18.4735737
	c1.0078888,0,1.9357758-0.1714344,2.7836761-0.5150204c0.847168-0.3428707,1.5929108-0.8364601,2.2365112-1.480772
	c0.6436005-0.6435957,1.1428986-1.4050541,1.4964905-2.2850876c0.3542938-0.8793201,0.5314484-1.855072,0.5314484-2.9286852
	c0-1.0721846-0.1771545-2.0486507-0.5314484-2.9286852c-0.3535919-0.8793197-0.8471832-1.6414924-1.4800568-2.2850885
	c-0.6328888-0.6435966-1.3786316-1.1364727-2.2365265-1.4800577c-0.8585968-0.3428702-1.7922058-0.5150199-2.8000946-0.5150199
	c-1.0093384,0-1.9365082,0.1721497-2.7843933,0.5150199c-0.8479004,0.343585-1.592926,0.8364611-2.2365265,1.4800577
	s-1.1428986,1.4057689-1.4964905,2.2850885c-0.3542938,0.8800344-0.5314484,1.8565006-0.5314484,2.9286852
	c0,1.0514688,0.1771545,2.0229359,0.5314484,2.9129705c0.3535919,0.890748,0.8471832,1.6572065,1.480072,2.3008022
	c0.6328735,0.6443119,1.3786163,1.1379013,2.2372284,1.480772
	C152.3112335,18.3021393,153.2441254,18.4735737,154.2534637,18.4735737z"/>
<path d="M174.9442596,22.5287304L167.5739746,0h5.4073486l6.404541,19.9543457h-2.7036743L183.3767242,0h4.8273315
	l6.436676,19.9543457h-2.6065216L198.5994568,0h4.9887695l-7.370285,22.5287304h-5.6002197l-5.69664-17.5078201h1.4807587
	l-5.8573608,17.5078201H174.9442596z"/>
<path d="M211.5892487,18.3449974h12.2619019v4.183733h-17.4435272V0h17.0249481v4.1837339h-11.8433228V18.3449974z
	 M211.2028046,9.076066h10.8461456v4.0551577h-10.8461456V9.076066z"/>
<path d="M228.1020355,22.5287304V0h9.7518005c2.01651,0,3.7544403,0.3271556,5.2137756,0.9814667
	c1.4586334,0.6550254,2.5850983,1.592919,3.379425,2.8158236c0.7928772,1.2236192,1.1907501,2.6829612,1.1907501,4.3773127
	c0,1.6736364-0.3978729,3.1165495-1.1907501,4.3287401c-0.7943268,1.2121897-1.9207916,2.1400824-3.379425,2.783679
	c-1.4593353,0.644311-3.1972656,0.9657516-5.2137756,0.9657516h-6.8552551l2.3172302-2.2850885v8.5610456H228.1020355z
	 M233.3158112,14.5469933l-2.3172302-2.4458094h6.5652466c1.6093597,0,2.8108215-0.3485851,3.6044312-1.0457554
	c0.7935944-0.6971693,1.1907654-1.6579208,1.1907654-2.880826c0-1.2443337-0.397171-2.2093711-1.1907654-2.8965406
	c-0.7936096-0.6864552-1.9950714-1.0300398-3.6044312-1.0300398h-6.5652466l2.3172302-2.4779534V14.5469933z
	 M242.4240265,22.5287304l-5.63237-8.1746025h5.5673676l5.69664,8.1746025H242.4240265z"/>
<path d="M256.8938599,18.3449974h12.2626343v4.183733h-17.4442596V0h17.02565v4.1837339h-11.8440247V18.3449974z
	 M256.5074158,9.076066h10.8461304v4.0551577h-10.8461304V9.076066z"/>
<path d="M273.4080811,22.5287304V0h10.2332458c2.4472351,0,4.6030273,0.4664467,6.4702454,1.4000543
	c1.8658142,0.9328934,3.3244324,2.2365155,4.375885,3.9101515c1.0514832,1.6736364,1.5772095,3.6587138,1.5772095,5.9538026
	c0,2.2750883-0.5257263,4.2544508-1.5772095,5.9380865c-1.0514526,1.6850662-2.5100708,2.9929733-4.375885,3.9265823
	c-1.867218,0.9336071-4.0230103,1.400053-6.4702454,1.400053H273.4080811z M278.6211243,18.2485657h4.7630615
	c1.5014954,0,2.8058167-0.2842979,3.9101563-0.85289c1.1057434-0.568594,1.9643555-1.3786259,2.5758057-2.4300947
	s0.9171753-2.2850885,0.9171753-3.7015724c0-1.4371986-0.3057251-2.6758184-0.9171753-3.7172871
	c-0.6114502-1.0400405-1.4700623-1.8450718-2.5758057-2.4136653c-1.1043396-0.5678792-2.4086609-0.85289-3.9101563-0.85289
	h-4.7630615V18.2485657z"/>
<path d="M306.0582581,22.5287304V0h11.006134c2.8329773,0,4.9616394,0.5364494,6.3888245,1.6093482
	c1.4272156,1.0728987,2.1400757,2.488668,2.1400757,4.2480216c0,1.1800461-0.2885742,2.204371-0.8685913,3.0736909
	c-0.5785828,0.8686047-1.3728943,1.5393457-2.3815308,2.011507c-1.008606,0.4721603-2.1672058,0.7078838-3.4758301,0.7078838
	l0.6114502-1.3193369c1.4157715,0,2.6715393,0.2307234,3.7658691,0.6914558
	c1.0942993,0.4621611,1.9472046,1.1429014,2.5586548,2.0443649c0.6114502,0.9007492,0.9171753,2.0057917,0.9171753,3.314414
	c0,1.9315033-0.7614441,3.4387054-2.2857971,4.5223179c-1.5229187,1.0836143-3.7644348,1.6250629-6.7259827,1.6250629H306.0582581z
	 M311.2398987,18.60215h6.0830994c1.3514709,0,2.3757935-0.2192936,3.0729675-0.6593113s1.0457458-1.1429005,1.0457458-2.1086531
	c0-0.9436083-0.3485718-1.646492-1.0457458-2.1079388c-0.6971741-0.4607325-1.7214966-0.6921701-3.0729675-0.6921701h-6.4702759
	V9.2367868h5.5687866c1.2657776,0,2.2372437-0.2200089,2.9129944-0.6600256
	c0.6757202-0.4393024,1.0128784-1.110043,1.0128784-2.0115066c0-0.8793197-0.3371582-1.5393453-1.0128784-1.9793625
	c-0.6757507-0.4393029-1.6472168-0.6593113-2.9129944-0.6593113h-5.1816101V18.60215z"/>
<path d="M335.3237,22.5287304v-9.2046423l1.190033,3.1536932L326.6019287,0h5.5344849l7.5960083,12.6483479h-3.1858215
	L344.1740417,0h5.1173401l-9.913269,16.4777813l1.1586304-3.1536932v9.2046423H335.3237z"/>
<path id="R_4_" d="M343.9707947,71.3188171c2.8809509-4.018425,2.7648315-8.3479118,2.7648315-10.7721596
	c0-12.5355797-9.006073-20.9331017-22.6369019-20.9331017h-4.2599182v13.5091209h5.072113
	c4.4628906,0,7.4381714,3.2214508,7.4381714,7.9193535c0,4.9662781-2.9752808,8.1877594-7.4381714,8.1877594l-5.072113-0.0026779
	v12.0103149h6.0079956l7.2579956,18.3761292h16.1865845l-9.6190186-24.3188477
	C340.8519592,74.5679169,342.5350037,73.3214722,343.9707947,71.3188171z"/>
<polygon id="E_6_" points="276.1470337,39.6135559 270.8041992,53.1213493 297.5669556,53.1213493 297.5669556,62.8584023 
	266.9528198,62.8584023 261.6094666,76.3674927 297.5669556,76.3674927 297.5669556,86.1045456 257.7581177,86.1045456 
	252.4147949,99.6135559 313.75354,99.6135559 313.75354,39.6135559 "/>
<polygon id="M_4_" points="199.2295227,39.6135559 212.1317902,39.6135559 234.6456757,65.1713715 257.1609192,39.6135559 
	270.0618286,39.6135559 246.3296204,99.6135559 246.3296204,72.3511658 234.6457214,85.7385788 222.9617615,72.3511658 
	222.9617615,99.6135559 "/>
<path id="A_7_" d="M179.2700653,39.6135559l-23.7322235,60h14.7919617l24.8684692-13.9044495l5.491684,13.9044495h16.186615
	l-23.7322388-60H179.2700653z M177.2107391,81.9765167l8.1445313-20.9430771l5.3549805,13.3874207L177.2107391,81.9765167z"/>
<polygon id="T_5_" points="167.8415222,53.1226768 173.184906,39.6135559 119.9999847,39.6135559 119.9999847,53.1226768 
	133.2660675,53.1226768 133.2660675,99.6135559 149.4526978,99.6135559 149.4526978,53.1226768 "/>
</svg>
