<?xml version="1.0" encoding="utf-8"?>
<!-- Generator: Adobe Illustrator 24.0.2, SVG Export Plug-In . SVG Version: 6.00 Build 0)  -->
<svg version="1.1" id="Слой_1" xmlns="http://www.w3.org/2000/svg" xmlns:xlink="http://www.w3.org/1999/xlink" x="0px" y="0px"
	 viewBox="0 0 800 800" style="enable-background:new 0 0 800 800;" xml:space="preserve">
<style type="text/css">
	.st0{opacity:0.5;fill:#FFFFFF;}
</style>
<path class="st0" d="M400,400c-82.7104492,0-150-67.2895508-150-150s67.2895508-150,150-150c82.7099609,0,150,67.2895508,150,150
	S482.7099609,400,400,400z M400,150c-55.1396484,0-100,44.8603516-100,100s44.8603516,100,100,100s100-44.8603516,100-100
	S455.1396484,150,400,150z"/>
<path class="st0" d="M574.9990234,650h-350c-24.4375,0-46.8833008-11.9375-58.5810547-31.1523438
	c-10.019043-16.4580078-10.5898438-35.9082031-1.5668945-53.3603516C200.565918,496.4101563,295.0634766,450,399.9990234,450
	s199.4335938,46.4101563,235.1474609,115.4873047c9.0253906,17.4521484,8.4521484,36.9023438-1.5664063,53.3603516
	C621.8847656,638.0625,599.4365234,650,574.9990234,650z M399.9990234,500c-85.375,0-163.8081055,36.3730469-190.7333984,88.4521484
	c-1.2041016,2.3271484-0.8354492,3.2519531-0.1396484,4.3974609C211.2905273,596.4023438,217.4365234,600,224.9990234,600h350
	c7.5625,0,13.7099609-3.5976563,15.8730469-7.1503906c0.6982422-1.1455078,1.0644531-2.0703125-0.1396484-4.3974609
	C563.8056641,536.3730469,485.3740234,500,399.9990234,500z"/>
</svg>
